<mxfile host="app.diagrams.net" agent="Mozilla/5.0 (Macintosh; Intel Mac OS X 10_15_7) AppleWebKit/537.36 (KHTML, like Gecko) Chrome/131.0.0.0 Safari/537.36" version="26.0.3">
  <diagram name="Page-1" id="lX-UTgaC5MK3PXPbaVDj">
    <mxGraphModel dx="1468" dy="1955" grid="1" gridSize="10" guides="1" tooltips="1" connect="1" arrows="1" fold="1" page="1" pageScale="1" pageWidth="827" pageHeight="1169" math="0" shadow="0">
      <root>
        <mxCell id="0" />
        <mxCell id="1" parent="0" />
        <mxCell id="KAhbLWWJNzZlOqf4pQM--89" value="" style="swimlane;startSize=0;gradientColor=default;swimlaneFillColor=#FFFFFF;fillColor=default;" parent="1" vertex="1">
          <mxGeometry x="330" y="-20" width="750" height="720" as="geometry" />
        </mxCell>
        <mxCell id="KAhbLWWJNzZlOqf4pQM--90" value="" style="rounded=1;whiteSpace=wrap;html=1;" parent="KAhbLWWJNzZlOqf4pQM--89" vertex="1">
          <mxGeometry x="140" y="10" width="511" height="690" as="geometry" />
        </mxCell>
        <mxCell id="KAhbLWWJNzZlOqf4pQM--92" value="Korisnik" style="shape=umlActor;verticalLabelPosition=bottom;verticalAlign=top;html=1;outlineConnect=0;" parent="KAhbLWWJNzZlOqf4pQM--89" vertex="1">
          <mxGeometry x="20" y="90" width="30" height="60" as="geometry" />
        </mxCell>
        <mxCell id="KAhbLWWJNzZlOqf4pQM--93" value="Vozač" style="shape=umlActor;verticalLabelPosition=bottom;verticalAlign=top;html=1;outlineConnect=0;" parent="KAhbLWWJNzZlOqf4pQM--89" vertex="1">
          <mxGeometry x="700" y="210" width="30" height="60" as="geometry" />
        </mxCell>
        <mxCell id="KAhbLWWJNzZlOqf4pQM--94" value="Dispečer" style="shape=umlActor;verticalLabelPosition=bottom;verticalAlign=top;html=1;outlineConnect=0;" parent="KAhbLWWJNzZlOqf4pQM--89" vertex="1">
          <mxGeometry x="690" y="100" width="30" height="60" as="geometry" />
        </mxCell>
        <mxCell id="KAhbLWWJNzZlOqf4pQM--95" value="Administrator" style="shape=umlActor;verticalLabelPosition=bottom;verticalAlign=top;html=1;outlineConnect=0;" parent="KAhbLWWJNzZlOqf4pQM--89" vertex="1">
          <mxGeometry x="30" y="270" width="30" height="60" as="geometry" />
        </mxCell>
        <mxCell id="KAhbLWWJNzZlOqf4pQM--96" value="Prijava na sustav" style="rounded=1;whiteSpace=wrap;html=1;" parent="KAhbLWWJNzZlOqf4pQM--89" vertex="1">
          <mxGeometry x="330" y="90" width="100" height="20" as="geometry" />
        </mxCell>
        <mxCell id="KAhbLWWJNzZlOqf4pQM--97" value="Narudžba vožnje" style="rounded=1;whiteSpace=wrap;html=1;" parent="KAhbLWWJNzZlOqf4pQM--89" vertex="1">
          <mxGeometry x="250" y="170" width="110" height="50" as="geometry" />
        </mxCell>
        <mxCell id="KAhbLWWJNzZlOqf4pQM--111" value="Plaćanje vožnje" style="rounded=1;whiteSpace=wrap;html=1;" parent="KAhbLWWJNzZlOqf4pQM--89" vertex="1">
          <mxGeometry x="250" y="315" width="110" height="30" as="geometry" />
        </mxCell>
        <mxCell id="KAhbLWWJNzZlOqf4pQM--113" value="Pregled statusa narudžbe" style="rounded=1;whiteSpace=wrap;html=1;" parent="KAhbLWWJNzZlOqf4pQM--89" vertex="1">
          <mxGeometry x="260" y="250" width="90" height="40" as="geometry" />
        </mxCell>
        <mxCell id="KAhbLWWJNzZlOqf4pQM--115" value="Ocjenjivanje vozača" style="rounded=1;whiteSpace=wrap;html=1;" parent="KAhbLWWJNzZlOqf4pQM--89" vertex="1">
          <mxGeometry x="260" y="385" width="90" height="40" as="geometry" />
        </mxCell>
        <mxCell id="BsXriNZ-ZhAdi_-iOktK-18" value="Primanje narudžbi od korisnika" style="rounded=1;whiteSpace=wrap;html=1;" vertex="1" parent="KAhbLWWJNzZlOqf4pQM--89">
          <mxGeometry x="460" y="200" width="110" height="30" as="geometry" />
        </mxCell>
        <mxCell id="BsXriNZ-ZhAdi_-iOktK-17" value="Praćenje lokacije vozila - upravljanje voznim parkom" style="rounded=1;whiteSpace=wrap;html=1;" vertex="1" parent="KAhbLWWJNzZlOqf4pQM--89">
          <mxGeometry x="460" y="260" width="110" height="40" as="geometry" />
        </mxCell>
        <mxCell id="BsXriNZ-ZhAdi_-iOktK-31" value="" style="endArrow=none;html=1;rounded=0;entryX=1;entryY=0.3333333333333333;entryDx=0;entryDy=0;entryPerimeter=0;exitX=0;exitY=0.5;exitDx=0;exitDy=0;" edge="1" parent="KAhbLWWJNzZlOqf4pQM--89" source="KAhbLWWJNzZlOqf4pQM--97" target="KAhbLWWJNzZlOqf4pQM--92">
          <mxGeometry width="50" height="50" relative="1" as="geometry">
            <mxPoint x="240" y="280" as="sourcePoint" />
            <mxPoint x="50" y="130" as="targetPoint" />
          </mxGeometry>
        </mxCell>
        <mxCell id="BsXriNZ-ZhAdi_-iOktK-33" value="" style="endArrow=none;html=1;rounded=0;exitX=1;exitY=0.3333333333333333;exitDx=0;exitDy=0;exitPerimeter=0;entryX=0;entryY=0.5;entryDx=0;entryDy=0;" edge="1" parent="KAhbLWWJNzZlOqf4pQM--89" source="KAhbLWWJNzZlOqf4pQM--92" target="KAhbLWWJNzZlOqf4pQM--96">
          <mxGeometry width="50" height="50" relative="1" as="geometry">
            <mxPoint x="240" y="310" as="sourcePoint" />
            <mxPoint x="290" y="260" as="targetPoint" />
          </mxGeometry>
        </mxCell>
        <mxCell id="BsXriNZ-ZhAdi_-iOktK-35" value="" style="endArrow=none;dashed=1;html=1;rounded=0;exitX=0.5;exitY=1;exitDx=0;exitDy=0;entryX=0.5;entryY=0;entryDx=0;entryDy=0;" edge="1" parent="KAhbLWWJNzZlOqf4pQM--89" source="KAhbLWWJNzZlOqf4pQM--96" target="KAhbLWWJNzZlOqf4pQM--97">
          <mxGeometry width="50" height="50" relative="1" as="geometry">
            <mxPoint x="445.5" y="216.43" as="sourcePoint" />
            <mxPoint x="345.5" y="209.99913183279745" as="targetPoint" />
          </mxGeometry>
        </mxCell>
        <mxCell id="BsXriNZ-ZhAdi_-iOktK-41" value="&amp;lt;&amp;lt;includes&amp;gt;&amp;gt;" style="edgeLabel;html=1;align=center;verticalAlign=middle;resizable=0;points=[];" vertex="1" connectable="0" parent="BsXriNZ-ZhAdi_-iOktK-35">
          <mxGeometry x="0.1122" relative="1" as="geometry">
            <mxPoint as="offset" />
          </mxGeometry>
        </mxCell>
        <mxCell id="BsXriNZ-ZhAdi_-iOktK-38" value="" style="endArrow=none;dashed=1;html=1;rounded=0;entryX=0.5;entryY=1;entryDx=0;entryDy=0;exitX=0.5;exitY=0;exitDx=0;exitDy=0;" edge="1" parent="KAhbLWWJNzZlOqf4pQM--89" source="KAhbLWWJNzZlOqf4pQM--113" target="KAhbLWWJNzZlOqf4pQM--97">
          <mxGeometry width="50" height="50" relative="1" as="geometry">
            <mxPoint x="240" y="320" as="sourcePoint" />
            <mxPoint x="290" y="270" as="targetPoint" />
          </mxGeometry>
        </mxCell>
        <mxCell id="BsXriNZ-ZhAdi_-iOktK-42" value="&amp;lt;&amp;lt;includes&amp;gt;&amp;gt;" style="edgeLabel;html=1;align=center;verticalAlign=middle;resizable=0;points=[];" vertex="1" connectable="0" parent="BsXriNZ-ZhAdi_-iOktK-38">
          <mxGeometry x="-0.2" y="-1" relative="1" as="geometry">
            <mxPoint as="offset" />
          </mxGeometry>
        </mxCell>
        <mxCell id="BsXriNZ-ZhAdi_-iOktK-39" value="" style="endArrow=none;dashed=1;html=1;rounded=0;exitX=0.5;exitY=0;exitDx=0;exitDy=0;entryX=0.5;entryY=1;entryDx=0;entryDy=0;" edge="1" parent="KAhbLWWJNzZlOqf4pQM--89" source="KAhbLWWJNzZlOqf4pQM--111" target="KAhbLWWJNzZlOqf4pQM--113">
          <mxGeometry width="50" height="50" relative="1" as="geometry">
            <mxPoint x="240" y="320" as="sourcePoint" />
            <mxPoint x="290" y="270" as="targetPoint" />
          </mxGeometry>
        </mxCell>
        <mxCell id="BsXriNZ-ZhAdi_-iOktK-43" value="&amp;lt;&amp;lt;includes&amp;gt;&amp;gt;" style="edgeLabel;html=1;align=center;verticalAlign=middle;resizable=0;points=[];" vertex="1" connectable="0" parent="BsXriNZ-ZhAdi_-iOktK-39">
          <mxGeometry x="-0.2571" relative="1" as="geometry">
            <mxPoint as="offset" />
          </mxGeometry>
        </mxCell>
        <mxCell id="BsXriNZ-ZhAdi_-iOktK-40" value="" style="endArrow=none;dashed=1;html=1;rounded=0;entryX=0.5;entryY=1;entryDx=0;entryDy=0;exitX=0.5;exitY=0;exitDx=0;exitDy=0;" edge="1" parent="KAhbLWWJNzZlOqf4pQM--89" source="KAhbLWWJNzZlOqf4pQM--115" target="KAhbLWWJNzZlOqf4pQM--111">
          <mxGeometry width="50" height="50" relative="1" as="geometry">
            <mxPoint x="240" y="320" as="sourcePoint" />
            <mxPoint x="290" y="270" as="targetPoint" />
          </mxGeometry>
        </mxCell>
        <mxCell id="BsXriNZ-ZhAdi_-iOktK-44" value="&amp;lt;&amp;lt;includes&amp;gt;&amp;gt;" style="edgeLabel;html=1;align=center;verticalAlign=middle;resizable=0;points=[];" vertex="1" connectable="0" parent="BsXriNZ-ZhAdi_-iOktK-40">
          <mxGeometry x="-0.2571" y="-1" relative="1" as="geometry">
            <mxPoint as="offset" />
          </mxGeometry>
        </mxCell>
        <mxCell id="BsXriNZ-ZhAdi_-iOktK-45" value="" style="endArrow=none;html=1;rounded=0;entryX=0;entryY=0.5;entryDx=0;entryDy=0;exitX=1;exitY=0.3333333333333333;exitDx=0;exitDy=0;exitPerimeter=0;" edge="1" parent="KAhbLWWJNzZlOqf4pQM--89" source="KAhbLWWJNzZlOqf4pQM--92" target="KAhbLWWJNzZlOqf4pQM--113">
          <mxGeometry width="50" height="50" relative="1" as="geometry">
            <mxPoint x="240" y="330" as="sourcePoint" />
            <mxPoint x="290" y="280" as="targetPoint" />
          </mxGeometry>
        </mxCell>
        <mxCell id="BsXriNZ-ZhAdi_-iOktK-46" value="" style="endArrow=none;html=1;rounded=0;exitX=1;exitY=0.3333333333333333;exitDx=0;exitDy=0;exitPerimeter=0;entryX=0;entryY=0.5;entryDx=0;entryDy=0;" edge="1" parent="KAhbLWWJNzZlOqf4pQM--89" source="KAhbLWWJNzZlOqf4pQM--92" target="KAhbLWWJNzZlOqf4pQM--111">
          <mxGeometry width="50" height="50" relative="1" as="geometry">
            <mxPoint x="100" y="150" as="sourcePoint" />
            <mxPoint x="290" y="280" as="targetPoint" />
          </mxGeometry>
        </mxCell>
        <mxCell id="BsXriNZ-ZhAdi_-iOktK-47" value="" style="endArrow=none;html=1;rounded=0;exitX=1;exitY=0.3333333333333333;exitDx=0;exitDy=0;exitPerimeter=0;entryX=0;entryY=0.5;entryDx=0;entryDy=0;" edge="1" parent="KAhbLWWJNzZlOqf4pQM--89" source="KAhbLWWJNzZlOqf4pQM--92" target="KAhbLWWJNzZlOqf4pQM--115">
          <mxGeometry width="50" height="50" relative="1" as="geometry">
            <mxPoint x="240" y="330" as="sourcePoint" />
            <mxPoint x="290" y="280" as="targetPoint" />
          </mxGeometry>
        </mxCell>
        <mxCell id="BsXriNZ-ZhAdi_-iOktK-49" value="" style="endArrow=none;html=1;rounded=0;entryX=0;entryY=0.3333333333333333;entryDx=0;entryDy=0;entryPerimeter=0;exitX=1;exitY=0.5;exitDx=0;exitDy=0;" edge="1" parent="KAhbLWWJNzZlOqf4pQM--89" source="BsXriNZ-ZhAdi_-iOktK-18" target="KAhbLWWJNzZlOqf4pQM--94">
          <mxGeometry width="50" height="50" relative="1" as="geometry">
            <mxPoint x="540" y="190" as="sourcePoint" />
            <mxPoint x="290" y="280" as="targetPoint" />
          </mxGeometry>
        </mxCell>
        <mxCell id="BsXriNZ-ZhAdi_-iOktK-50" value="" style="endArrow=none;html=1;rounded=0;exitX=1;exitY=0.5;exitDx=0;exitDy=0;entryX=0;entryY=0.3333333333333333;entryDx=0;entryDy=0;entryPerimeter=0;" edge="1" parent="KAhbLWWJNzZlOqf4pQM--89" source="BsXriNZ-ZhAdi_-iOktK-17" target="KAhbLWWJNzZlOqf4pQM--94">
          <mxGeometry width="50" height="50" relative="1" as="geometry">
            <mxPoint x="240" y="330" as="sourcePoint" />
            <mxPoint x="290" y="280" as="targetPoint" />
          </mxGeometry>
        </mxCell>
        <mxCell id="BsXriNZ-ZhAdi_-iOktK-52" value="" style="endArrow=none;html=1;rounded=0;entryX=0;entryY=0.3333333333333333;entryDx=0;entryDy=0;entryPerimeter=0;exitX=1;exitY=0.5;exitDx=0;exitDy=0;" edge="1" parent="KAhbLWWJNzZlOqf4pQM--89" source="KAhbLWWJNzZlOqf4pQM--96" target="KAhbLWWJNzZlOqf4pQM--94">
          <mxGeometry width="50" height="50" relative="1" as="geometry">
            <mxPoint x="390" y="260" as="sourcePoint" />
            <mxPoint x="440" y="210" as="targetPoint" />
          </mxGeometry>
        </mxCell>
        <mxCell id="BsXriNZ-ZhAdi_-iOktK-53" value="" style="endArrow=none;dashed=1;html=1;rounded=0;entryX=0.5;entryY=1;entryDx=0;entryDy=0;exitX=0.5;exitY=0;exitDx=0;exitDy=0;" edge="1" parent="KAhbLWWJNzZlOqf4pQM--89" source="BsXriNZ-ZhAdi_-iOktK-18" target="KAhbLWWJNzZlOqf4pQM--96">
          <mxGeometry width="50" height="50" relative="1" as="geometry">
            <mxPoint x="240" y="320" as="sourcePoint" />
            <mxPoint x="290" y="270" as="targetPoint" />
          </mxGeometry>
        </mxCell>
        <mxCell id="BsXriNZ-ZhAdi_-iOktK-55" value="&amp;lt;&amp;lt;includes&amp;gt;&amp;gt;" style="edgeLabel;html=1;align=center;verticalAlign=middle;resizable=0;points=[];" vertex="1" connectable="0" parent="BsXriNZ-ZhAdi_-iOktK-53">
          <mxGeometry x="-0.0832" y="3" relative="1" as="geometry">
            <mxPoint as="offset" />
          </mxGeometry>
        </mxCell>
        <mxCell id="BsXriNZ-ZhAdi_-iOktK-54" value="" style="endArrow=none;dashed=1;html=1;rounded=0;entryX=0.5;entryY=1;entryDx=0;entryDy=0;exitX=0.5;exitY=0;exitDx=0;exitDy=0;" edge="1" parent="KAhbLWWJNzZlOqf4pQM--89" source="BsXriNZ-ZhAdi_-iOktK-17" target="BsXriNZ-ZhAdi_-iOktK-18">
          <mxGeometry width="50" height="50" relative="1" as="geometry">
            <mxPoint x="240" y="320" as="sourcePoint" />
            <mxPoint x="290" y="270" as="targetPoint" />
          </mxGeometry>
        </mxCell>
        <mxCell id="BsXriNZ-ZhAdi_-iOktK-56" value="&amp;lt;&amp;lt;includes&amp;gt;&amp;gt;" style="edgeLabel;html=1;align=center;verticalAlign=middle;resizable=0;points=[];" vertex="1" connectable="0" parent="BsXriNZ-ZhAdi_-iOktK-54">
          <mxGeometry x="-0.1667" y="-2" relative="1" as="geometry">
            <mxPoint as="offset" />
          </mxGeometry>
        </mxCell>
        <mxCell id="BsXriNZ-ZhAdi_-iOktK-20" value="Dodjeljivanje vožnji vozačima" style="rounded=1;whiteSpace=wrap;html=1;" vertex="1" parent="KAhbLWWJNzZlOqf4pQM--89">
          <mxGeometry x="460" y="320" width="110" height="30" as="geometry" />
        </mxCell>
        <mxCell id="BsXriNZ-ZhAdi_-iOktK-57" value="" style="endArrow=none;html=1;rounded=0;entryX=0;entryY=0.3333333333333333;entryDx=0;entryDy=0;entryPerimeter=0;exitX=1;exitY=0.5;exitDx=0;exitDy=0;" edge="1" parent="KAhbLWWJNzZlOqf4pQM--89" source="BsXriNZ-ZhAdi_-iOktK-20" target="KAhbLWWJNzZlOqf4pQM--94">
          <mxGeometry width="50" height="50" relative="1" as="geometry">
            <mxPoint x="370" y="380" as="sourcePoint" />
            <mxPoint x="420" y="330" as="targetPoint" />
          </mxGeometry>
        </mxCell>
        <mxCell id="BsXriNZ-ZhAdi_-iOktK-58" value="" style="endArrow=none;dashed=1;html=1;rounded=0;entryX=0.5;entryY=1;entryDx=0;entryDy=0;exitX=0.5;exitY=0;exitDx=0;exitDy=0;" edge="1" parent="KAhbLWWJNzZlOqf4pQM--89" source="BsXriNZ-ZhAdi_-iOktK-20" target="BsXriNZ-ZhAdi_-iOktK-17">
          <mxGeometry width="50" height="50" relative="1" as="geometry">
            <mxPoint x="370" y="380" as="sourcePoint" />
            <mxPoint x="420" y="330" as="targetPoint" />
          </mxGeometry>
        </mxCell>
        <mxCell id="BsXriNZ-ZhAdi_-iOktK-59" value="&amp;lt;&amp;lt;includes&amp;gt;&amp;gt;" style="edgeLabel;html=1;align=center;verticalAlign=middle;resizable=0;points=[];" vertex="1" connectable="0" parent="BsXriNZ-ZhAdi_-iOktK-58">
          <mxGeometry x="-0.0667" y="-1" relative="1" as="geometry">
            <mxPoint as="offset" />
          </mxGeometry>
        </mxCell>
        <mxCell id="BsXriNZ-ZhAdi_-iOktK-60" value="" style="endArrow=none;html=1;rounded=0;entryX=0;entryY=0.3333333333333333;entryDx=0;entryDy=0;entryPerimeter=0;exitX=1;exitY=0.25;exitDx=0;exitDy=0;" edge="1" parent="KAhbLWWJNzZlOqf4pQM--89" source="KAhbLWWJNzZlOqf4pQM--96" target="KAhbLWWJNzZlOqf4pQM--93">
          <mxGeometry width="50" height="50" relative="1" as="geometry">
            <mxPoint x="370" y="380" as="sourcePoint" />
            <mxPoint x="420" y="330" as="targetPoint" />
          </mxGeometry>
        </mxCell>
        <mxCell id="BsXriNZ-ZhAdi_-iOktK-19" value="Primanje narudžbi od dispečera" style="rounded=1;whiteSpace=wrap;html=1;" vertex="1" parent="KAhbLWWJNzZlOqf4pQM--89">
          <mxGeometry x="460" y="390" width="110" height="30" as="geometry" />
        </mxCell>
        <mxCell id="BsXriNZ-ZhAdi_-iOktK-21" value="Upravljanje vožnjama" style="rounded=1;whiteSpace=wrap;html=1;" vertex="1" parent="KAhbLWWJNzZlOqf4pQM--89">
          <mxGeometry x="460" y="460" width="110" height="30" as="geometry" />
        </mxCell>
        <mxCell id="BsXriNZ-ZhAdi_-iOktK-61" value="" style="endArrow=none;html=1;rounded=0;entryX=0;entryY=0.3333333333333333;entryDx=0;entryDy=0;entryPerimeter=0;exitX=1;exitY=0.5;exitDx=0;exitDy=0;" edge="1" parent="KAhbLWWJNzZlOqf4pQM--89" source="BsXriNZ-ZhAdi_-iOktK-19" target="KAhbLWWJNzZlOqf4pQM--93">
          <mxGeometry width="50" height="50" relative="1" as="geometry">
            <mxPoint x="350" y="420" as="sourcePoint" />
            <mxPoint x="400" y="370" as="targetPoint" />
          </mxGeometry>
        </mxCell>
        <mxCell id="BsXriNZ-ZhAdi_-iOktK-62" value="" style="endArrow=none;html=1;rounded=0;entryX=0;entryY=0.3333333333333333;entryDx=0;entryDy=0;entryPerimeter=0;exitX=1;exitY=0.5;exitDx=0;exitDy=0;" edge="1" parent="KAhbLWWJNzZlOqf4pQM--89" source="BsXriNZ-ZhAdi_-iOktK-21" target="KAhbLWWJNzZlOqf4pQM--93">
          <mxGeometry width="50" height="50" relative="1" as="geometry">
            <mxPoint x="350" y="420" as="sourcePoint" />
            <mxPoint x="400" y="370" as="targetPoint" />
          </mxGeometry>
        </mxCell>
        <mxCell id="BsXriNZ-ZhAdi_-iOktK-66" value="" style="endArrow=none;dashed=1;html=1;rounded=0;entryX=0.5;entryY=1;entryDx=0;entryDy=0;exitX=0.5;exitY=0;exitDx=0;exitDy=0;" edge="1" parent="KAhbLWWJNzZlOqf4pQM--89" source="BsXriNZ-ZhAdi_-iOktK-19" target="BsXriNZ-ZhAdi_-iOktK-20">
          <mxGeometry width="50" height="50" relative="1" as="geometry">
            <mxPoint x="350" y="420" as="sourcePoint" />
            <mxPoint x="400" y="370" as="targetPoint" />
          </mxGeometry>
        </mxCell>
        <mxCell id="BsXriNZ-ZhAdi_-iOktK-68" value="&amp;lt;&amp;lt;includes&amp;gt;&amp;gt;" style="edgeLabel;html=1;align=center;verticalAlign=middle;resizable=0;points=[];" vertex="1" connectable="0" parent="BsXriNZ-ZhAdi_-iOktK-66">
          <mxGeometry x="0.1111" y="-2" relative="1" as="geometry">
            <mxPoint as="offset" />
          </mxGeometry>
        </mxCell>
        <mxCell id="BsXriNZ-ZhAdi_-iOktK-67" value="" style="endArrow=none;dashed=1;html=1;rounded=0;entryX=0.5;entryY=1;entryDx=0;entryDy=0;exitX=0.5;exitY=0;exitDx=0;exitDy=0;" edge="1" parent="KAhbLWWJNzZlOqf4pQM--89" source="BsXriNZ-ZhAdi_-iOktK-21" target="BsXriNZ-ZhAdi_-iOktK-19">
          <mxGeometry width="50" height="50" relative="1" as="geometry">
            <mxPoint x="350" y="420" as="sourcePoint" />
            <mxPoint x="400" y="370" as="targetPoint" />
          </mxGeometry>
        </mxCell>
        <mxCell id="BsXriNZ-ZhAdi_-iOktK-69" value="&amp;lt;&amp;lt;includes&amp;gt;&amp;gt;" style="edgeLabel;html=1;align=center;verticalAlign=middle;resizable=0;points=[];" vertex="1" connectable="0" parent="BsXriNZ-ZhAdi_-iOktK-67">
          <mxGeometry x="-0.0667" y="1" relative="1" as="geometry">
            <mxPoint as="offset" />
          </mxGeometry>
        </mxCell>
        <mxCell id="BsXriNZ-ZhAdi_-iOktK-70" value="" style="endArrow=none;html=1;rounded=0;entryX=0;entryY=0.5;entryDx=0;entryDy=0;exitX=1;exitY=0.3333333333333333;exitDx=0;exitDy=0;exitPerimeter=0;" edge="1" parent="KAhbLWWJNzZlOqf4pQM--89" source="KAhbLWWJNzZlOqf4pQM--95" target="KAhbLWWJNzZlOqf4pQM--96">
          <mxGeometry width="50" height="50" relative="1" as="geometry">
            <mxPoint x="350" y="330" as="sourcePoint" />
            <mxPoint x="400" y="280" as="targetPoint" />
          </mxGeometry>
        </mxCell>
        <mxCell id="BsXriNZ-ZhAdi_-iOktK-71" value="Upravljanje korisnicima" style="rounded=1;whiteSpace=wrap;html=1;" vertex="1" parent="KAhbLWWJNzZlOqf4pQM--89">
          <mxGeometry x="240" y="470" width="110" height="30" as="geometry" />
        </mxCell>
        <mxCell id="BsXriNZ-ZhAdi_-iOktK-72" value="Pregled, analiza i generiranje izvještaja" style="rounded=1;whiteSpace=wrap;html=1;" vertex="1" parent="KAhbLWWJNzZlOqf4pQM--89">
          <mxGeometry x="240" y="520" width="110" height="50" as="geometry" />
        </mxCell>
        <mxCell id="BsXriNZ-ZhAdi_-iOktK-73" value="Registracija vozila , servisi - Upravljanje voznim parkom" style="rounded=1;whiteSpace=wrap;html=1;" vertex="1" parent="KAhbLWWJNzZlOqf4pQM--89">
          <mxGeometry x="240" y="590" width="110" height="60" as="geometry" />
        </mxCell>
        <mxCell id="BsXriNZ-ZhAdi_-iOktK-74" value="" style="endArrow=none;html=1;rounded=0;exitX=1;exitY=0.3333333333333333;exitDx=0;exitDy=0;exitPerimeter=0;entryX=0;entryY=0.5;entryDx=0;entryDy=0;" edge="1" parent="KAhbLWWJNzZlOqf4pQM--89" source="KAhbLWWJNzZlOqf4pQM--95" target="BsXriNZ-ZhAdi_-iOktK-71">
          <mxGeometry width="50" height="50" relative="1" as="geometry">
            <mxPoint x="370" y="590" as="sourcePoint" />
            <mxPoint x="420" y="540" as="targetPoint" />
          </mxGeometry>
        </mxCell>
        <mxCell id="BsXriNZ-ZhAdi_-iOktK-75" value="" style="endArrow=none;html=1;rounded=0;exitX=1;exitY=0.3333333333333333;exitDx=0;exitDy=0;exitPerimeter=0;entryX=0;entryY=0.5;entryDx=0;entryDy=0;" edge="1" parent="KAhbLWWJNzZlOqf4pQM--89" source="KAhbLWWJNzZlOqf4pQM--95" target="BsXriNZ-ZhAdi_-iOktK-72">
          <mxGeometry width="50" height="50" relative="1" as="geometry">
            <mxPoint x="370" y="480" as="sourcePoint" />
            <mxPoint x="420" y="430" as="targetPoint" />
          </mxGeometry>
        </mxCell>
        <mxCell id="BsXriNZ-ZhAdi_-iOktK-76" value="" style="endArrow=none;html=1;rounded=0;exitX=1;exitY=0.3333333333333333;exitDx=0;exitDy=0;exitPerimeter=0;entryX=0;entryY=0.5;entryDx=0;entryDy=0;" edge="1" parent="KAhbLWWJNzZlOqf4pQM--89" source="KAhbLWWJNzZlOqf4pQM--95" target="BsXriNZ-ZhAdi_-iOktK-73">
          <mxGeometry width="50" height="50" relative="1" as="geometry">
            <mxPoint x="370" y="480" as="sourcePoint" />
            <mxPoint x="420" y="430" as="targetPoint" />
          </mxGeometry>
        </mxCell>
      </root>
    </mxGraphModel>
  </diagram>
</mxfile>
